<svg xmlns="http://www.w3.org/2000/svg" id="icon" width="14" height="14" viewBox="0 0 14 14">
  <path
     d="M 1.6681869,12.916712 2.6172959,6.680283 3.3614017,6.23474 4.0892836,6.6921671 c 0,0 0.8252483,6.3001349 0.7477814,6.2623749 -0.077475,-0.03778 -3.1534264,0.0189 -3.1689476,-0.03778 z"
     fill-opacity="0.33333"
     id="path1"
     style="stroke-width:0.772198" />
  <path
     d="m 1.1667213,4.0115655 c -0.040867,0.00245 -0.079583,0.019151 -0.1094051,0.047196 L 0.19276286,4.867562 c -0.076735,0.071535 -0.073722,0.1940535 0.00643,0.2617212 L 2.7456739,7.3067281 0.19919536,9.4863355 c -0.080162,0.06767 -0.083174,0.190184 -0.00643,0.261721 L 1.0573187,10.556857 c 0.077133,0.07216 0.2001229,0.06006 0.2617212,-0.02575 L 3.3571005,7.7529738 5.3951636,10.531112 c 0.061551,0.08425 0.182679,0.09626 0.2595822,0.02575 L 6.5192991,9.7480615 c 0.076735,-0.07154 0.073722,-0.194054 -0.00644,-0.261721 L 3.9663805,7.3067281 6.512859,5.1292832 C 6.5930209,5.061607 6.5960325,4.9390985 6.5192955,4.867562 L 5.6547422,4.0587614 c -0.034174,-0.032037 -0.07976,-0.049037 -0.1265633,-0.047196 -0.053116,0.00283 -0.1020615,0.029676 -0.1330034,0.072939 L 3.3571123,6.8626422 1.3190492,4.0845042 C 1.2841443,4.0356812 1.2266557,4.0081516 1.1667408,4.0115655 Z M 3.3569847,7.2015941 3.4663898,7.3067134 3.354838,7.4139795 3.2454329,7.3088602 Z"
     id="path2"
     style="stroke-width:0.772198" />
  <path
     d="M 9.7626785,3.5058528 C 9.7626715,3.2287185 9.6626175,2.995198 9.4625255,2.8052681 9.2624105,2.6153459 9.0238009,2.5203964 8.7466667,2.5203809 c -0.2768332,8.7e-6 -0.5127861,0.094973 -0.7078666,0.2848872 -0.1950959,0.1899299 -0.29264,0.4234658 -0.29264,0.7005847 -5.4e-6,0.2768331 0.097544,0.5102069 0.29264,0.700129 0.1950805,0.1899299 0.4310489,0.2848949 0.7078666,0.2848872 0.2771342,6.3e-6 0.5157508,-0.094957 0.7158588,-0.2848872 0.200092,-0.1899221 0.300138,-0.4232882 0.300153,-0.700129 z M 7.1153513,13.756785 c 0.2154356,-2e-6 0.3898675,-0.102555 0.5232648,-0.307667 l 2.8934269,-4.3561245 0.154069,0.600307 -0.43074,3.2631565 c -0.02068,0.164084 0.01518,0.310323 0.107567,0.438724 0.09237,0.128386 0.220609,0.207922 0.384709,0.238625 0.164394,0.03069 0.315806,-0.0026 0.454223,-0.100054 0.138393,-0.09739 0.217937,-0.228285 0.238625,-0.392693 l 0.446238,-3.3397585 c 0.01032,-0.113042 1.05e-4,-0.231096 -0.03053,-0.354169 l -0.98548,-3.9250071 2.570726,-0.461736 c 0.133389,-0.020348 0.241111,-0.089552 0.323165,-0.2076132 0.08204,-0.1180537 0.112725,-0.2437753 0.09206,-0.3771803 -0.0307,-0.1333973 -0.107575,-0.246285 -0.23064,-0.3386708 L 7.7155502,0.2429595 7.176772,1.0278991 C 7.043367,1.2126707 7.0742086,1.3717436 7.2693045,1.5051332 7.4537441,1.6178818 7.6126702,1.5870325 7.7460752,1.4126006 L 8.0542132,0.9508646 12.856205,4.1065304 8.9317394,4.8143969 C 8.7879947,4.8450933 8.6725202,4.9194622 8.5853235,5.0375236 8.4981037,5.155585 8.475015,5.2813221 8.5160419,5.4147039 l 0.8464066,3.3091788 -2.770416,4.1406823 c -0.051361,0.09207 -0.07704,0.189451 -0.077035,0.292169 -4.3e-6,0.164085 0.059024,0.305158 0.1770805,0.423227 0.1180537,0.118053 0.2591266,0.17708 0.4232265,0.17708 z"
     id="path3"
     style="stroke-width:0.772198" />
</svg>
